# xmcd
#
# Track frame offsets: 
#        150
#        17825
#        34218
#        50734
#        69878
#        84908
#        101359
#        117577
#        137120
#        150214
#        167076
#        188709
#        204819
#
# Disc length: 2982 seconds
#
# Revision: 0
# Processed by: cddbd v1.5.1PL2 Copyright (c) Steve Scherf et al.
# Submitted via: ExactAudioCopy v0.95b4
#
DISCID=9f0ba40d
DTITLE=Hush - A Lifetime
DYEAR=2005
DGENRE=Bluegrass
TTITLE0=If You Go Breaking My Heart
TTITLE1=Say A Little Prayer
TTITLE2=If I Was
TTITLE3=A Lifetime
TTITLE4=Sometimes
TTITLE5=Lovestruck
TTITLE6=That Don't Make It Right
TTITLE7=For How Long
TTITLE8=To A Better Place
TTITLE9=Come To My Rescue
TTITLE10=Drown
TTITLE11=Why You Fly (Bonus Track)
TTITLE12=Horses (Bonus Track)
EXTD=
EXTT0=
EXTT1=
EXTT2=
EXTT3=
EXTT4=
EXTT5=
EXTT6=
EXTT7=
EXTT8=
EXTT9=
EXTT10=
EXTT11=
EXTT12=
PLAYORDER=
